<?xml version="1.0" standalone="no"?>
<!DOCTYPE svg PUBLIC "-//W3C//DTD SVG 20010904//EN"
 "http://www.w3.org/TR/2001/REC-SVG-20010904/DTD/svg10.dtd">
<svg version="1.0" xmlns="http://www.w3.org/2000/svg"
 width="584.000000pt" height="520.000000pt" viewBox="0 0 584.000000 520.000000"
 preserveAspectRatio="xMidYMid meet">

<g transform="translate(0.000000,520.000000) scale(0.100000,-0.100000)"
fill="#000000" stroke="none">
<path d="M135 5130 c38 -38 76 -70 85 -70 14 0 70 51 70 64 0 3 -17 21 -37 41
-36 33 -41 34 -113 35 l-74 0 69 -70z"/>
<path d="M421 5103 c56 -54 107 -102 115 -106 16 -9 19 -47 5 -47 -8 0 -62
-47 -274 -242 -56 -51 -56 -56 5 -100 l29 -20 111 111 c61 62 137 134 168 161
54 46 58 48 78 34 34 -23 27 -41 -36 -97 -31 -28 -114 -109 -185 -179 -70 -70
-130 -128 -133 -128 -4 0 -25 19 -48 41 -22 23 -71 66 -108 95 -37 30 -70 59
-74 65 -4 7 59 75 155 168 89 86 161 161 161 167 0 13 -43 54 -56 53 -5 0 -31
-27 -59 -59 -27 -32 -55 -59 -60 -59 -6 -1 -56 42 -110 95 l-100 95 -3 -77 -3
-77 46 -47 c25 -25 45 -51 45 -57 0 -7 -20 -33 -45 -60 -44 -47 -44 -49 -45
-117 l0 -70 343 -338 c188 -186 344 -338 347 -337 3 0 68 60 145 134 l140 134
-29 30 c-17 17 -35 31 -41 31 -6 0 -55 -45 -110 -100 -55 -55 -105 -100 -111
-100 -11 0 -54 41 -54 52 0 3 35 36 78 73 42 38 158 146 257 242 98 95 187
173 197 173 10 0 74 -54 143 -120 69 -66 139 -127 156 -136 17 -8 51 -15 77
-14 87 3 95 -6 34 -38 -99 -51 -138 -36 -292 114 -59 57 -112 104 -117 104 -6
0 -25 -16 -43 -36 l-32 -37 94 -94 c103 -104 171 -153 211 -153 52 0 25 -37
-40 -55 -35 -10 -69 15 -200 140 l-123 117 -35 -38 c-19 -20 -35 -39 -35 -41
0 -2 65 -69 145 -149 80 -79 145 -147 145 -149 0 -2 -36 -39 -81 -82 -95 -92
-167 -180 -199 -243 -17 -34 -25 -72 -32 -165 -5 -66 -6 -134 -3 -152 10 -57
-5 -63 -193 -65 -92 -1 -178 -1 -192 0 -14 1 -47 -3 -74 -8 -59 -13 -78 -1
-74 44 3 30 4 31 51 28 32 -2 57 2 73 13 22 14 24 22 24 103 l0 87 88 72 c48
39 169 153 270 252 163 161 182 182 172 200 -6 11 -19 25 -29 31 -24 13 -49
-6 -239 -186 -83 -77 -186 -165 -230 -195 -83 -56 -192 -153 -192 -170 0 -6
14 -22 30 -36 34 -28 39 -58 11 -73 -27 -14 -47 -4 -61 30 -7 16 -18 31 -25
34 -34 13 -55 -72 -55 -223 l0 -122 315 4 c231 3 319 8 330 17 8 7 21 10 29 7
16 -6 32 -69 22 -86 -4 -6 -170 -10 -465 -10 -253 -1 -473 -4 -490 -7 -30 -6
-31 -9 -31 -55 l0 -49 508 6 c309 4 512 10 519 16 9 7 24 1 53 -22 37 -29 44
-40 38 -55 -3 -5 -234 -8 -960 -14 l-158 -1 0 -59 0 -59 558 4 c359 3 569 8
590 15 28 9 38 7 75 -15 23 -14 58 -39 77 -56 30 -27 35 -36 36 -83 1 -28 10
-72 19 -97 23 -58 30 -153 15 -189 -6 -16 -23 -33 -36 -40 -30 -13 -196 -15
-240 -2 -43 12 -64 -2 -64 -45 0 -72 4 -74 164 -74 175 0 196 4 239 44 91 84
86 237 -13 350 -68 77 -14 92 60 16 65 -66 89 -119 90 -200 3 -142 -33 -212
-135 -260 -37 -18 -66 -20 -354 -20 -299 0 -317 1 -358 21 -71 34 -88 68 -88
174 l0 90 115 -3 c63 -2 169 -7 235 -12 66 -4 122 -4 125 0 3 5 3 36 0 71 l-5
62 -200 -3 c-110 -1 -238 -3 -285 -4 l-85 -1 -7 -45 c-29 -198 34 -383 153
-445 28 -15 218 -23 255 -11 46 14 51 -6 58 -212 l6 -193 -26 -24 c-36 -34
-81 -38 -265 -25 -90 7 -188 9 -216 6 -29 -3 -152 -6 -273 -6 l-220 -1 0 -54
0 -55 393 -1 c560 -2 573 -1 628 27 28 14 56 38 69 59 22 36 22 42 16 223 -3
103 -7 201 -9 217 l-2 30 90 1 c154 2 298 15 324 29 34 17 102 90 131 138 17
30 24 59 28 126 5 96 -2 128 -49 225 -31 63 -34 77 -20 104 19 35 48 108 58
147 29 106 33 128 33 206 0 100 -12 130 -96 244 -74 99 -84 122 -84 189 0 54
23 126 40 126 5 0 11 -15 14 -32 3 -18 7 -46 10 -63 13 -86 37 -134 139 -280
19 -27 22 -50 28 -220 8 -215 14 -278 30 -350 20 -88 56 -208 83 -275 29 -72
68 -212 70 -249 1 -19 -9 -30 -46 -50 -64 -36 -120 -91 -179 -178 -27 -40 -52
-73 -54 -73 -3 0 -16 22 -29 49 -25 49 -71 96 -103 104 -33 9 -118 21 -133 19
-8 -2 -53 -4 -100 -5 l-85 -2 -6 -40 c-4 -22 -3 -44 2 -50 6 -6 64 -10 134
-10 l124 0 40 -39 c55 -54 63 -96 57 -291 -6 -168 -21 -238 -56 -270 -11 -10
-20 -26 -20 -35 0 -20 50 -70 71 -70 14 0 71 68 99 120 11 19 15 77 16 232 2
204 2 209 28 261 47 93 122 183 188 226 47 30 65 38 75 29 24 -20 13 -43 -37
-81 -49 -37 -97 -100 -160 -212 -31 -55 -34 -67 -33 -145 0 -72 4 -93 26 -136
32 -62 91 -116 155 -139 26 -9 57 -21 69 -27 13 -6 25 -9 28 -6 3 2 0 43 -6
89 -13 100 -3 189 31 268 24 54 42 64 60 30 9 -16 7 -30 -12 -67 -19 -39 -23
-62 -22 -137 1 -76 5 -99 27 -145 28 -60 159 -210 183 -210 31 0 11 41 -50
103 -56 57 -73 83 -106 162 -30 71 -14 245 22 245 17 0 34 -33 24 -48 -7 -12
11 -127 30 -185 9 -27 22 -47 30 -47 17 0 18 12 0 80 -7 30 -16 74 -20 98 -8
55 9 56 78 4 48 -36 55 -38 121 -37 46 1 84 7 110 19 48 23 134 29 155 11 22
-18 67 -28 130 -29 l55 -1 -3 -71 c-6 -105 13 -134 123 -194 118 -64 180 -124
225 -218 17 -35 35 -60 40 -57 34 21 -25 150 -98 216 -27 24 -82 61 -123 83
-41 21 -84 48 -97 59 -26 24 -42 75 -42 132 l0 41 61 13 c59 13 62 13 78 -7 9
-11 39 -32 66 -47 131 -71 178 -161 133 -252 -16 -32 -2 -41 24 -16 22 23 38
96 30 138 -8 43 -76 108 -161 155 -44 25 -81 48 -81 52 0 4 10 12 21 19 18 9
30 6 70 -15 60 -33 100 -39 164 -25 71 16 170 57 191 80 33 37 44 24 44 -53 0
-63 4 -78 35 -133 19 -35 61 -92 93 -127 111 -123 162 -217 162 -301 0 -42 13
-77 23 -61 2 5 8 29 12 52 13 82 -37 196 -131 297 -125 136 -164 210 -164 314
0 46 7 71 33 122 39 75 74 94 64 36 -7 -45 8 -162 29 -229 18 -54 52 -113 61
-104 3 3 -4 40 -15 83 -11 43 -22 101 -24 128 l-3 50 45 5 c70 8 131 44 174
100 21 27 41 50 45 50 3 0 6 -60 6 -132 l1 -133 46 -90 c25 -49 73 -123 107
-162 33 -40 61 -76 61 -79 0 -9 -92 -126 -165 -209 -179 -206 -350 -478 -404
-644 -23 -71 -28 -179 -10 -230 22 -63 -5 -56 -62 14 -86 107 -99 132 -99 198
0 78 22 118 132 235 50 53 106 121 126 150 31 47 36 62 40 130 3 63 0 86 -18
125 -23 52 -36 58 -49 23 -5 -13 -26 -41 -45 -62 -20 -21 -57 -69 -84 -105
-26 -36 -63 -78 -84 -93 -62 -45 -77 -29 -30 33 15 20 38 56 51 81 14 25 27
47 30 50 4 3 28 38 55 77 70 106 91 176 65 224 -15 29 -29 14 -29 -32 0 -42
-19 -82 -94 -198 -23 -36 -53 -86 -67 -111 -61 -116 -123 -166 -194 -158 -24
3 -56 15 -71 27 -33 26 -44 27 -44 2 0 -11 14 -31 31 -45 37 -31 111 -36 166
-10 28 14 38 15 57 5 43 -24 119 31 207 150 100 134 114 137 107 25 -6 -89
-24 -120 -154 -257 -172 -182 -198 -300 -94 -426 96 -116 122 -156 127 -194 5
-38 7 -39 44 -39 42 0 49 13 27 53 -20 36 -11 276 14 350 53 164 206 392 377
567 67 69 136 144 153 168 17 23 37 42 43 42 7 0 36 -28 66 -62 30 -34 66 -76
82 -93 15 -16 42 -54 59 -82 18 -29 38 -53 45 -53 19 0 313 300 334 342 10 20
19 55 19 77 0 34 -7 48 -43 86 -24 25 -53 45 -64 45 -25 0 -117 -115 -109
-137 5 -12 10 -12 35 3 33 20 61 13 61 -15 0 -19 -23 -50 -135 -180 -53 -61
-95 -89 -95 -62 0 5 -33 46 -73 92 -39 46 -92 109 -117 139 -24 30 -66 79 -92
108 -57 64 -122 190 -138 269 -6 32 -15 74 -19 94 -8 36 6 147 28 225 11 41
84 121 113 126 7 1 83 2 168 2 l155 1 0 60 0 59 -175 -3 c-111 -2 -186 -7
-205 -15 -50 -21 -100 -87 -134 -176 -44 -114 -64 -147 -120 -206 -35 -36 -63
-55 -101 -67 -56 -18 -89 -22 -91 -9 -1 4 -3 35 -5 69 l-4 62 43 19 c61 27
113 92 141 175 3 9 3 38 -1 63 -7 54 -19 42 -29 -30 -7 -56 -49 -120 -102
-156 -41 -29 -62 -16 -34 21 47 63 122 252 122 311 0 13 7 32 15 42 8 11 15
31 15 44 0 13 5 33 12 45 6 12 15 45 19 72 10 65 14 80 33 140 17 53 31 132
46 255 5 41 13 100 18 130 5 32 5 86 0 130 -5 41 -8 98 -8 125 1 61 -15 275
-30 405 -18 157 -79 311 -150 375 -11 10 -20 22 -20 27 0 15 -73 89 -102 104
-36 19 -36 34 1 34 17 0 32 4 35 9 3 5 18 11 33 14 16 3 48 10 73 16 63 13
208 -3 266 -30 60 -29 109 -77 174 -174 29 -44 73 -103 96 -131 53 -62 88
-135 109 -230 28 -124 150 -278 257 -326 35 -16 39 -28 23 -64 -7 -16 -18 -44
-25 -61 -39 -103 -110 -163 -110 -93 0 37 -24 85 -96 197 -30 46 -54 87 -54
91 0 4 -9 18 -20 32 l-20 25 0 -27 c0 -40 15 -72 75 -163 30 -45 62 -99 70
-121 9 -21 21 -49 27 -62 10 -19 8 -30 -6 -57 -11 -19 -26 -37 -35 -40 -9 -3
-25 -20 -36 -38 -11 -18 -30 -33 -42 -35 -12 -2 -25 -12 -28 -22 -8 -24 -81
-100 -97 -100 -6 0 -8 12 -3 33 29 140 15 178 -107 289 -135 124 -153 176 -98
284 87 169 79 227 -49 348 -29 27 -66 70 -84 95 -23 34 -33 41 -35 29 -5 -24
34 -86 99 -159 71 -81 78 -95 79 -153 0 -35 -9 -68 -32 -115 -23 -47 -33 -85
-36 -131 -4 -61 -1 -70 27 -112 17 -25 64 -75 106 -113 85 -76 105 -108 107
-168 3 -81 -13 -140 -45 -174 -42 -44 -51 -42 -44 12 11 75 -9 141 -72 250
-32 55 -64 117 -71 137 -6 21 -16 41 -22 44 -25 15 4 -76 57 -183 78 -157 94
-283 44 -347 -40 -51 -61 -129 -74 -271 -9 -97 -10 -142 -3 -146 6 -4 25 -1
42 6 23 10 111 14 331 16 l300 2 1 -189 c1 -104 2 -197 3 -206 1 -15 22 -17
221 -16 146 1 223 5 229 12 15 19 19 135 5 147 -22 18 -91 1 -109 -27 -15 -24
-19 -25 -126 -22 l-110 3 -6 255 c-3 156 -1 270 5 292 5 19 6 41 3 47 -16 26
-383 31 -458 6 -37 -12 -29 22 17 71 38 42 40 47 40 109 0 57 3 69 25 91 23
23 27 24 52 10 22 -11 54 -12 143 -8 63 3 352 6 643 6 l527 -1 0 59 0 60 -615
-6 c-456 -4 -616 -3 -621 6 -4 6 9 26 30 46 28 25 43 32 59 28 25 -8 59 -8
685 -7 l462 2 0 48 0 49 -120 4 c-66 2 -125 9 -130 14 -7 7 -10 59 -8 135 l3
124 30 -3 c17 -2 74 -5 127 -8 l97 -6 0 141 c0 133 -1 141 -19 141 -27 0 -99
-52 -100 -71 0 -9 7 -19 15 -23 19 -7 20 -50 1 -65 -9 -7 -22 -8 -37 -3 -13 5
-29 7 -35 5 -6 -2 -53 -7 -105 -11 l-94 -7 3 -135 c1 -74 8 -149 14 -166 23
-66 33 -64 -319 -62 -198 1 -324 5 -335 12 -13 8 -22 6 -36 -7 -10 -9 -23 -17
-29 -17 -24 0 -18 29 19 105 38 78 39 83 42 203 2 68 8 128 14 134 5 5 20 8
33 6 l24 -3 0 -170 c0 -93 3 -175 7 -180 4 -7 92 -11 250 -10 l243 0 -2 143
c-1 78 -5 146 -8 151 -3 5 -31 9 -63 8 l-57 -2 0 -90 0 -90 -127 -3 c-119 -2
-128 -1 -138 18 -6 11 -9 24 -6 29 3 5 5 53 5 107 -1 55 -1 121 -1 147 l1 48
-119 -5 -120 -4 -45 66 c-24 37 -67 91 -94 120 l-50 53 197 194 197 193 -40
41 c-21 23 -44 41 -51 41 -6 0 -40 -33 -75 -72 -102 -115 -305 -318 -319 -318
-18 0 -60 42 -60 61 0 10 11 20 25 23 14 4 54 34 89 69 80 79 106 142 106 259
0 71 -3 87 -30 133 -42 74 -115 138 -179 160 -63 21 -149 17 -204 -10 -50 -23
-171 -130 -237 -208 -30 -36 -60 -68 -67 -71 -18 -7 -113 5 -113 15 0 5 16 19
35 32 19 13 102 89 183 168 81 79 190 180 242 224 52 44 96 87 97 95 2 8 -13
33 -31 55 l-35 40 -53 -57 c-29 -31 -82 -82 -118 -114 -36 -31 -144 -133 -241
-225 -169 -161 -177 -167 -198 -153 -11 8 -21 22 -21 31 0 8 66 80 147 160
l148 145 -184 179 -184 179 -86 0 -86 0 45 -43 c25 -23 108 -100 185 -171 77
-71 141 -133 143 -137 4 -10 -190 -209 -204 -209 -6 0 -28 19 -50 43 -22 23
-81 82 -132 130 -50 49 -92 93 -92 98 0 6 11 27 25 47 14 20 25 40 25 45 0 22
-69 90 -115 112 l-52 26 -478 -6 c-317 -3 -491 -9 -517 -17 -66 -20 -114 -70
-165 -177 -51 -105 -110 -189 -170 -241 -21 -18 -75 -68 -121 -112 -46 -43
-103 -88 -127 -100 -40 -19 -47 -20 -91 -8 -39 11 -67 33 -167 130 l-120 117
157 157 c86 86 161 156 166 156 5 0 22 -19 38 -43 40 -57 115 -125 147 -133
44 -11 121 1 153 25 32 22 72 86 92 145 13 41 90 109 159 142 l46 22 -113 1
-112 1 -20 -32 c-11 -18 -24 -56 -30 -84 -12 -58 -49 -100 -95 -109 -24 -5
-41 1 -84 32 -29 21 -63 54 -74 74 l-21 37 32 36 c18 20 32 39 32 41 0 3 -30
5 -67 5 l-68 0 -230 -223 c-127 -122 -295 -281 -375 -353 -80 -73 -206 -191
-280 -263 -74 -72 -137 -130 -141 -129 -4 2 -37 37 -74 78 -37 41 -73 79 -81
83 -8 4 -14 16 -14 26 0 18 259 272 378 370 35 29 62 58 60 65 -2 7 -59 63
-128 124 -69 60 -150 135 -180 166 l-54 56 -73 0 -74 0 102 -97z m2788 -107
c25 -23 28 -72 5 -97 -20 -22 -44 -14 -44 16 0 26 -24 50 -40 40 -5 -3 -10
-12 -10 -19 0 -7 -13 -32 -30 -54 -37 -51 -38 -74 -4 -101 39 -30 88 -37 133
-17 l37 17 122 -81 c127 -85 171 -130 116 -116 -16 4 -51 21 -78 38 -103 63
-225 94 -408 104 -54 3 -98 10 -98 15 0 5 17 20 38 33 29 18 42 36 54 72 9 27
19 56 23 65 12 31 -18 46 -75 39 -50 -6 -70 -20 -70 -48 0 -23 -47 -107 -75
-132 -21 -20 -37 -25 -78 -25 -59 -1 -255 -30 -307 -47 -57 -18 -130 -48 -204
-84 -37 -19 -70 -34 -72 -34 -16 0 5 29 54 78 56 56 119 164 137 234 6 24 3
29 -28 44 -33 16 -38 16 -60 1 -16 -10 -32 -37 -43 -69 -25 -77 -59 -136 -118
-205 -70 -84 -135 -134 -206 -161 -89 -34 -106 -26 -45 23 28 22 91 80 140
130 89 89 112 124 150 230 11 30 35 66 60 91 l43 42 378 1 c208 1 379 3 380 4
1 1 47 0 102 -3 80 -4 104 -9 121 -24z m-216 -324 c64 -2 117 -7 117 -12 0 -4
-19 -18 -43 -29 -36 -17 -51 -20 -90 -12 -38 7 -52 5 -77 -10 -43 -26 -75 -24
-99 7 -15 20 -18 31 -11 44 11 20 46 31 70 22 8 -3 68 -8 133 -10z m-243 -26
c0 -26 8 -41 35 -65 42 -37 75 -39 136 -11 74 33 79 30 72 -48 -7 -86 7 -117
89 -193 85 -80 145 -107 255 -114 48 -3 104 -10 123 -14 19 -5 57 -14 84 -20
51 -12 166 -92 166 -115 0 -10 -19 -12 -77 -9 -88 4 -99 -1 -131 -62 -21 -42
-16 -75 12 -75 7 0 22 -13 34 -30 32 -42 55 -40 46 4 -6 36 11 106 30 118 6 4
34 8 62 8 47 0 55 -3 84 -36 54 -62 58 -79 24 -114 -32 -32 -50 -36 -76 -16
-21 15 -23 27 -7 43 9 9 16 9 30 0 42 -26 35 22 -8 50 -18 12 -24 11 -52 -13
-39 -33 -36 -64 10 -106 37 -35 75 -36 110 -2 29 27 48 26 47 -4 -1 -9 7 -45
16 -78 9 -34 16 -67 16 -73 0 -21 -25 -10 -67 28 -24 22 -61 43 -87 51 -26 7
-49 17 -52 21 -3 5 -13 9 -23 9 -10 0 -51 25 -92 55 -84 63 -102 70 -169 62
-122 -15 -220 -121 -219 -237 1 -56 14 -90 62 -162 39 -56 39 -57 20 -82 -32
-45 -73 -30 -73 26 0 11 -11 52 -25 90 -30 82 -34 188 -9 246 32 77 108 131
230 162 55 14 80 31 107 72 23 37 22 53 -8 93 -27 35 -42 39 -217 64 -84 12
-157 50 -209 110 -44 49 -60 49 -35 -1 46 -94 131 -139 286 -153 41 -4 84 -11
95 -17 33 -17 65 -50 65 -67 0 -24 -67 -62 -140 -78 -14 -4 -34 -12 -45 -19
-23 -15 -40 -8 -49 22 -11 35 -63 80 -108 93 -68 20 -147 70 -164 103 -13 26
-14 42 -4 117 12 85 12 88 -13 138 -18 34 -36 54 -57 63 -17 7 -33 10 -36 8
-2 -3 11 -24 30 -47 45 -54 55 -110 31 -185 -20 -63 -15 -92 20 -134 26 -31
104 -82 126 -82 30 0 115 -52 132 -81 24 -42 22 -55 -14 -81 -50 -37 -79 -105
-81 -191 0 -40 5 -90 11 -112 7 -22 17 -53 22 -70 6 -16 11 -34 12 -39 1 -5
-20 -18 -48 -28 -76 -29 -80 -29 -76 14 1 21 -2 52 -8 70 -6 18 -20 60 -31 94
-22 65 -26 157 -10 214 25 90 107 140 162 100 26 -19 48 -20 48 -1 0 16 -77
61 -105 61 -80 0 -146 -102 -153 -236 -4 -73 -1 -94 27 -178 17 -53 31 -107
31 -120 0 -13 7 -29 15 -36 19 -16 19 -34 1 -49 -12 -10 -46 -69 -76 -130 -4
-9 -15 -33 -26 -55 -25 -52 -25 -167 0 -216 36 -69 88 -122 143 -146 29 -13
62 -24 73 -24 31 0 33 19 3 31 -94 38 -154 93 -180 162 -21 58 -15 146 15 215
49 114 139 212 193 212 32 0 21 -26 -34 -82 -29 -29 -66 -80 -82 -113 -25 -51
-30 -72 -30 -140 0 -76 2 -83 35 -130 37 -53 103 -94 151 -95 29 0 95 46 102
72 4 13 -8 23 -42 40 -25 12 -54 31 -63 43 -60 70 45 146 159 116 95 -26 140
-119 130 -268 -6 -81 -20 -123 -59 -173 l-20 -25 28 -11 c56 -23 160 25 183
84 6 15 16 34 22 43 16 22 3 109 -17 109 -10 0 -14 -13 -14 -47 0 -69 -46
-139 -95 -149 -47 -8 -54 0 -24 32 23 24 24 31 23 162 0 75 -3 149 -8 163 -8
26 -7 26 58 31 54 5 79 13 138 48 40 24 94 66 119 93 27 29 52 48 60 45 8 -3
29 -31 48 -62 25 -42 31 -60 23 -68 -9 -9 -16 -7 -30 5 -10 9 -22 17 -25 17
-13 0 -7 -40 6 -40 21 -1 70 -58 64 -75 -4 -8 -11 -15 -16 -15 -12 0 -71 61
-71 73 0 14 -43 67 -55 67 -6 0 -33 -20 -60 -44 l-50 -44 2 -63 c2 -47 9 -72
27 -100 31 -46 102 -104 139 -113 38 -9 34 -42 -5 -38 -32 4 -43 -11 -28 -39
11 -20 12 -20 31 -3 10 9 22 15 25 11 11 -10 -7 -85 -22 -91 -24 -9 -96 56
-129 119 -39 76 -71 156 -87 220 -15 64 -26 79 -45 64 -25 -21 6 -114 102
-314 34 -69 91 -125 129 -125 21 0 26 -13 17 -46 -11 -41 -37 -43 -46 -5 -4
17 -13 31 -21 31 -10 0 -13 -7 -8 -24 8 -33 -9 -40 -40 -15 -25 20 -46 76 -61
161 -6 36 -20 56 -32 44 -9 -9 17 -157 34 -193 19 -41 54 -63 111 -72 51 -7
59 -17 38 -46 -13 -17 -18 -18 -35 -7 -12 6 -27 12 -34 12 -34 0 -98 62 -122
116 -14 31 -25 62 -25 70 0 20 -17 26 -40 14 -23 -12 -26 -35 -7 -47 8 -4 30
-34 51 -66 20 -33 49 -70 63 -83 33 -30 89 -58 101 -50 18 11 34 -21 22 -43
-17 -32 -41 -25 -103 30 -63 56 -73 47 -26 -25 33 -50 55 -66 89 -66 16 0 21
-5 18 -21 -5 -39 -33 -46 -69 -20 -39 29 -61 15 -35 -23 11 -18 25 -26 45 -26
38 0 43 -8 25 -41 -20 -39 -36 -36 -78 12 -28 33 -35 49 -34 83 0 22 -6 80
-14 127 -12 67 -23 98 -52 141 -33 51 -62 76 -73 64 -3 -2 14 -36 36 -74 30
-51 44 -89 51 -139 6 -37 13 -87 16 -109 7 -47 -9 -66 -27 -33 -6 12 -16 56
-21 98 -20 168 -112 271 -240 271 -45 0 -59 -5 -91 -31 -36 -29 -38 -34 -32
-70 8 -47 -6 -51 -44 -15 -35 33 -122 75 -173 84 l-42 7 -1 97 c-2 83 -5 102
-27 140 -81 137 -98 183 -98 257 0 39 -4 71 -9 71 -13 0 -25 -120 -16 -161 4
-19 27 -73 52 -121 42 -82 63 -161 63 -236 0 -36 -16 -48 -54 -38 -21 5 -24
12 -28 78 -6 93 -40 166 -109 237 -57 58 -78 69 -162 81 -62 9 -107 -2 -107
-27 0 -7 -5 -13 -11 -13 -14 0 -3 68 14 89 22 26 89 71 99 65 5 -3 2 -17 -7
-31 -20 -29 -18 -32 31 -43 44 -10 74 2 74 30 0 10 5 22 10 25 14 8 13 101 -1
128 -22 42 -46 57 -94 57 l-45 0 0 40 c0 42 -63 177 -98 209 -9 9 -39 40 -66
69 -46 51 -48 56 -42 95 9 52 49 97 87 97 20 0 36 -11 58 -37 23 -28 34 -34
42 -26 31 31 -42 113 -100 113 -56 0 -127 -85 -119 -142 6 -37 -10 -45 -51
-24 -35 19 -76 20 -120 5 -41 -15 -50 -5 -28 32 9 17 17 40 17 52 0 40 20 94
45 123 30 35 31 44 6 44 -24 0 -71 -61 -71 -92 0 -22 -14 -71 -39 -134 -8 -20
-34 -47 -69 -72 -76 -53 -96 -77 -132 -150 -33 -69 -65 -86 -55 -29 3 17 11
75 18 127 l13 95 28 -3 c44 -5 129 42 159 87 25 38 67 150 67 179 0 20 -38
101 -58 125 -14 15 -13 21 4 52 22 41 44 46 44 10 0 -51 73 -138 127 -151 14
-4 52 3 89 15 44 14 90 21 144 21 74 0 80 2 80 20 0 12 -9 24 -22 29 -26 9
-72 26 -135 48 -52 18 -47 33 10 33 123 0 296 -124 326 -233 19 -66 0 -202
-46 -336 -28 -84 -34 -112 -28 -148 5 -33 10 -43 22 -41 23 4 33 50 17 72 -13
18 -9 46 7 46 5 0 9 -10 9 -23 0 -14 9 -26 23 -32 29 -13 67 -90 69 -140 2
-58 -18 -141 -52 -214 -34 -72 -38 -104 -14 -99 9 2 20 10 24 18 4 8 14 30 23
49 30 58 61 184 61 241 -1 64 -33 137 -89 195 -19 21 -35 43 -35 49 0 6 9 40
20 76 11 36 25 111 30 167 9 92 8 107 -9 153 -11 28 -31 66 -45 85 -33 43
-139 113 -193 126 -24 6 -43 15 -43 20 0 9 111 83 196 129 83 46 108 72 107
114 -2 72 -96 145 -171 133 -38 -6 -102 -63 -102 -90 0 -21 35 -48 54 -41 20
8 20 18 1 34 -14 12 -14 15 1 31 39 43 122 30 158 -26 26 -40 17 -66 -36 -100
-26 -16 -94 -60 -150 -97 -140 -91 -173 -97 -237 -42 -40 33 -39 56 3 91 34
28 64 77 90 146 21 52 36 47 36 -12 0 -43 4 -53 32 -76 27 -23 39 -26 79 -23
82 8 145 76 106 115 -23 24 -49 9 -41 -22 13 -51 -68 -75 -113 -33 -33 31 -33
115 0 145 81 76 236 65 318 -24 79 -84 92 -201 29 -263 -71 -71 -83 -91 -82
-127 1 -21 13 -60 27 -87 26 -51 32 -107 16 -148 -5 -13 -5 -65 1 -126 12
-119 3 -172 -30 -187 -29 -13 -28 -33 3 -41 31 -8 78 -65 105 -128 15 -35 20
-70 20 -131 0 -77 10 -109 28 -90 4 4 9 43 10 88 5 100 -19 176 -74 244 -34
41 -36 48 -27 77 6 18 10 114 9 231 -2 200 -2 200 -30 252 -28 50 -28 53 -12
78 19 29 46 33 46 6 0 -11 13 -49 30 -86 30 -67 30 -67 24 -208 -5 -136 1
-178 24 -164 13 9 27 314 15 330 -6 7 -20 41 -33 77 -13 36 -29 71 -36 79 -11
12 -8 23 17 69 38 66 41 126 10 195 -31 66 -75 114 -135 144 -45 23 -58 25
-130 20 -85 -5 -170 -34 -193 -67 -7 -10 -25 -23 -41 -29 -22 -9 -36 -29 -62
-86 -39 -91 -78 -131 -145 -151 l-51 -14 -100 51 c-96 49 -101 50 -164 45 -66
-6 -104 4 -85 23 6 5 46 13 90 17 44 4 98 15 119 25 22 11 48 19 58 19 10 0
18 4 18 9 0 5 15 15 34 21 19 6 39 17 45 24 6 7 21 11 34 9 14 -3 29 2 36 11
34 40 55 -1 28 -54 -10 -20 -19 -24 -44 -22 -17 2 -34 -1 -38 -7 -3 -6 -22
-11 -41 -11 -23 0 -34 -4 -32 -12 6 -16 59 -33 67 -21 6 10 45 33 55 33 3 0 6
-8 6 -18 0 -21 -57 -52 -95 -52 -13 0 -36 11 -51 25 -30 28 -54 33 -54 11 0
-17 59 -63 92 -71 33 -8 96 18 130 55 24 26 47 82 62 150 5 24 73 70 104 70 7
0 20 4 30 9 65 34 171 58 287 64 28 2 60 4 73 5 19 2 22 -3 22 -32z m458 -2
c31 -9 23 -26 -19 -37 -19 -5 -43 -16 -53 -25 -30 -27 -56 -93 -56 -144 0 -27
-5 -48 -11 -48 -20 0 -41 73 -36 124 4 43 10 55 43 84 56 49 84 59 132 46z
m1262 -83 c64 -68 85 -163 52 -241 -25 -61 -126 -130 -190 -130 -28 0 -82 33
-82 49 0 10 79 41 103 41 43 0 107 74 107 123 0 38 -19 92 -41 116 -16 17 -30
21 -62 19 -50 -4 -57 -22 -32 -78 23 -50 12 -68 -66 -110 -54 -28 -68 -32
-112 -27 -28 4 -55 11 -61 17 -5 5 -17 10 -26 10 -9 0 -24 6 -35 14 -17 12
-16 16 25 60 24 26 80 77 123 114 85 70 113 81 202 74 45 -3 55 -9 95 -51z
m-1132 19 c1 -8 -11 -23 -28 -32 -88 -50 -96 -182 -15 -250 18 -16 65 -25 65
-13 0 3 -16 19 -35 36 -22 19 -37 43 -41 66 -8 41 11 105 38 129 10 10 18 23
18 31 0 13 17 17 54 13 16 -1 64 -22 118 -51 10 -5 24 -9 31 -9 7 0 28 -11 47
-25 19 -14 44 -25 55 -25 29 0 37 -10 24 -27 -7 -7 -31 -13 -57 -13 -39 0 -50
5 -82 39 -28 29 -41 36 -49 28 -19 -19 -12 -34 25 -56 39 -23 37 -41 -5 -41
-18 0 -38 12 -61 35 -32 33 -33 36 -17 53 22 24 22 42 -1 42 -34 0 -108 -96
-98 -127 10 -31 67 -85 83 -79 8 3 19 6 24 6 5 0 9 5 9 10 0 6 -7 10 -16 10
-15 0 -74 55 -74 69 0 3 4 12 9 20 7 11 19 3 55 -34 l46 -47 43 12 c23 6 69
16 102 21 33 5 74 15 91 21 28 10 40 8 92 -15 33 -15 75 -30 93 -33 69 -12
183 -56 226 -87 119 -85 593 -580 593 -619 0 -15 -28 -7 -66 18 -43 30 -43 29
-121 139 -66 92 -85 83 -27 -13 52 -89 104 -144 160 -170 77 -36 78 -38 88
-66 17 -47 -4 -52 -75 -18 -35 17 -65 29 -67 27 -8 -8 83 -86 107 -92 37 -8
51 -22 51 -50 0 -60 -67 -27 -173 86 -63 68 -95 127 -116 215 -21 88 -54 149
-153 281 -102 137 -106 142 -161 191 -57 53 -117 80 -200 92 -109 17 -155 15
-223 -8 -32 -11 -66 -20 -75 -20 -9 0 -22 -7 -29 -15 -8 -10 -29 -15 -59 -14
-52 0 -90 12 -74 22 29 18 157 58 221 69 76 13 90 23 46 34 -38 10 -169 -21
-271 -63 -117 -48 -185 -50 -261 -8 -77 42 -102 75 -102 135 0 79 27 129 95
172 37 23 118 22 123 -2z m-1459 -266 c30 -8 64 -26 78 -40 13 -13 30 -24 38
-24 55 0 58 -31 6 -79 -99 -93 -216 -281 -239 -386 -19 -82 -35 -295 -28 -367
10 -113 -6 -125 -59 -42 -43 66 -64 126 -77 214 -11 77 -12 63 5 220 14 133
25 167 69 215 16 17 28 33 28 38 0 35 -104 -79 -115 -125 -4 -18 -10 -76 -14
-128 -7 -87 -11 -101 -51 -169 -80 -136 -68 -204 63 -375 102 -132 110 -197
46 -382 -22 -66 -43 -129 -46 -141 -7 -31 -41 -30 -49 1 -4 16 -11 22 -23 19
-9 -2 -25 5 -35 16 -16 17 -17 26 -7 71 25 115 11 164 -77 279 -62 81 -66 99
-46 206 12 65 31 64 56 -3 14 -38 42 -77 98 -137 74 -78 100 -124 100 -175 0
-16 -24 -82 -60 -168 -17 -40 -20 -56 -12 -64 7 -7 14 -9 17 -6 18 18 75 207
75 249 0 68 -17 102 -93 188 -92 104 -125 170 -134 265 -5 65 -3 79 12 96 19
20 34 45 57 90 7 14 16 27 20 30 10 8 36 88 52 167 31 146 67 194 176 234 69
25 80 45 19 35 -109 -17 -182 -90 -209 -206 -25 -104 -50 -173 -90 -242 -22
-38 -40 -76 -40 -83 0 -28 -21 -26 -47 4 -16 18 -37 31 -50 31 -38 0 -26 22
42 78 74 61 98 101 115 193 33 180 97 269 221 309 61 20 80 22 152 15 116 -11
136 -11 137 0 1 12 -60 22 -180 31 -77 6 -90 4 -142 -19 -112 -50 -183 -149
-214 -301 -22 -104 -37 -130 -115 -203 -118 -111 -202 -201 -242 -261 -48 -71
-46 -69 -56 -54 -13 22 9 115 36 150 13 18 77 88 142 155 94 98 128 143 175
226 62 112 64 157 3 66 -20 -30 -37 -57 -37 -60 0 -18 -80 -121 -135 -175 -37
-36 -87 -91 -111 -122 -49 -62 -64 -71 -64 -36 0 47 57 133 163 246 115 124
225 232 235 232 5 0 47 39 136 126 48 47 109 82 152 87 84 8 122 6 173 -9z
m273 -106 c3 -49 5 -53 27 -50 25 2 71 -22 71 -38 0 -5 -14 -10 -31 -12 -23
-2 -34 -10 -40 -26 -9 -24 -9 -24 50 -17 68 8 131 -8 131 -32 0 -12 -8 -14
-37 -9 -21 3 -63 0 -94 -6 l-56 -11 -49 37 c-39 30 -50 45 -54 74 -7 44 5 105
20 110 6 2 16 10 23 18 24 27 36 15 39 -38z m-194 -196 c2 -11 10 -26 18 -32
23 -20 18 -107 -10 -167 -30 -64 -87 -106 -138 -101 -28 2 -33 7 -33 28 0 22
4 25 39 26 53 2 116 65 116 118 0 50 -9 66 -36 66 -30 0 -31 22 -3 61 23 33
42 34 47 1z m1630 1 c-13 -27 -27 -61 -32 -75 -8 -26 -25 -22 -32 8 -5 18 0
32 17 50 20 22 56 34 47 17z m-1688 -92 c25 -48 -9 -111 -61 -111 -34 0 -38
19 -9 45 11 10 20 24 20 32 0 20 19 53 30 53 5 0 14 -9 20 -19z m1577 -73 c78
-34 105 -77 40 -64 -49 10 -132 -13 -162 -44 -22 -23 -24 -31 -16 -53 12 -32
26 -34 41 -8 22 43 74 62 167 63 106 2 181 -22 251 -79 77 -62 109 -114 111
-180 1 -32 -22 -29 -37 5 -30 64 -117 133 -199 157 -87 26 -198 25 -248 -2
-42 -23 -53 -33 -99 -101 -16 -23 -34 -41 -40 -39 -24 8 -76 111 -76 152 1 77
55 161 124 191 39 17 107 18 143 2z m-2173 -257 c55 -57 69 -147 30 -206 -22
-34 -44 -137 -38 -173 4 -19 29 -63 56 -99 63 -82 84 -131 92 -216 9 -93 -3
-94 -104 -10 -184 153 -254 240 -232 287 6 11 17 53 26 91 9 39 27 93 41 121
27 55 33 98 13 92 -26 -9 -79 -137 -90 -218 -7 -47 -16 -79 -23 -77 -35 12
-53 197 -22 232 10 11 36 43 57 72 56 73 69 78 108 42 42 -39 42 -86 2 -199
-32 -91 -39 -182 -19 -252 17 -63 29 -44 23 36 -7 79 12 182 47 261 10 22 19
62 19 89 0 41 -5 55 -27 78 -15 15 -35 28 -45 28 -25 0 -23 26 4 44 32 23 40
21 82 -23z m931 20 c23 -10 64 -44 93 -76 54 -61 132 -199 132 -233 0 -11 5
-22 12 -24 25 -9 -4 -38 -89 -90 -100 -61 -148 -78 -223 -78 -47 0 -62 6 -119
45 -36 24 -82 61 -103 82 -49 51 -111 169 -104 197 15 61 127 163 203 186 51
15 155 11 198 -9z m1463 -22 c95 -47 199 -171 163 -193 -5 -3 -20 -30 -35 -59
-14 -30 -50 -78 -80 -107 -113 -110 -242 -140 -357 -82 -47 23 -65 27 -136 26
-46 0 -83 3 -83 7 0 4 25 56 57 116 31 59 63 122 72 139 29 57 105 142 146
163 30 16 59 21 116 21 65 0 85 -4 137 -31z m213 -268 c4 -61 -10 -76 -31 -36
-16 30 -15 82 2 102 16 20 25 1 29 -66z m-2077 8 c8 -42 7 -47 -22 -79 -31
-33 -32 -33 -52 -15 -23 21 -27 73 -6 81 8 3 20 19 26 35 19 44 43 34 54 -22z
m1381 22 c3 -6 -3 -18 -13 -28 -48 -47 -94 -168 -94 -248 0 -58 34 -114 73
-122 34 -7 40 -38 9 -48 -27 -9 -101 28 -127 62 -52 71 -54 152 -6 251 44 90
136 167 158 133z m-1306 -142 c18 -22 44 -44 57 -49 13 -5 24 -14 24 -19 0
-14 -192 -123 -200 -114 -4 4 -10 35 -14 69 l-7 60 41 36 c22 20 40 41 40 47
0 23 28 9 59 -30z m681 -21 c26 -42 24 -111 -3 -116 -16 -3 -18 1 -13 25 9 40
-23 72 -57 55 -12 -6 -31 -13 -42 -16 -30 -9 -85 -65 -101 -102 -8 -18 -14
-50 -14 -70 0 -51 76 -128 135 -139 90 -15 146 -65 91 -79 -15 -4 -26 -13 -26
-21 0 -17 -26 -20 -35 -4 -4 6 -39 31 -79 56 -39 25 -88 64 -110 87 -58 62
-106 122 -106 133 0 6 -7 16 -15 23 -30 25 -27 -18 6 -80 29 -55 108 -140 130
-140 5 0 9 -7 9 -15 0 -8 -8 -15 -17 -15 -24 0 -86 -23 -101 -37 -31 -29 -40
-15 -41 60 0 73 -41 216 -72 253 -18 22 6 36 48 29 18 -3 42 -1 54 5 11 7 27
9 35 6 13 -5 13 -10 -2 -35 -16 -28 -16 -30 6 -60 27 -38 35 -33 36 23 2 64
10 78 69 121 130 93 182 106 215 53z m-512 -100 c2 -11 -5 -19 -21 -23 -14 -4
-37 -20 -52 -35 -33 -34 -30 -67 9 -125 66 -96 92 -269 53 -353 -28 -60 -67
-86 -130 -83 -50 1 -93 24 -81 42 3 5 24 6 48 3 172 -24 201 272 33 335 -36
14 -83 14 -108 0 -34 -18 -47 4 -45 74 1 57 3 62 26 67 30 6 108 47 170 90 49
33 93 37 98 8z m1776 -52 c36 -41 66 -78 66 -84 0 -5 -7 -15 -15 -22 -13 -11
-22 -10 -51 3 -34 17 -47 36 -59 90 -8 39 -29 29 -33 -17 -3 -32 2 -43 36 -77
29 -28 48 -39 70 -39 32 0 42 -13 34 -42 -6 -25 -16 -23 -76 16 -107 72 -136
165 -70 230 8 9 19 16 23 16 5 0 38 -33 75 -74z m-1750 -12 c3 -9 6 -28 6 -43
0 -16 8 -39 18 -52 22 -29 42 -133 42 -217 0 -45 -5 -66 -20 -83 -10 -13 -20
-22 -20 -19 -1 3 -3 41 -5 85 -4 90 -24 158 -66 228 -35 57 -35 64 -7 94 25
27 43 29 52 7z m460 -85 c56 -16 133 -92 166 -164 34 -75 47 -180 24 -189 -31
-12 -44 -6 -44 20 0 32 -27 117 -54 169 -26 49 -78 85 -124 85 -53 0 -137 61
-115 84 10 10 104 7 147 -5z m-601 -163 c46 -46 66 -121 43 -164 -42 -81 -130
-82 -171 -2 -29 56 -9 98 40 86 28 -7 34 -31 10 -40 -13 -4 -14 -10 -5 -26 13
-24 37 -26 62 -3 19 17 25 53 8 53 -6 0 -14 8 -17 17 -9 23 -55 62 -73 63 -8
0 -21 -9 -28 -20 -15 -25 -27 -19 -36 16 -10 40 8 54 75 54 53 0 61 -3 92 -34z
m2387 -37 c0 -11 -12 -38 -26 -60 -14 -23 -34 -60 -44 -83 -24 -54 -87 -126
-111 -126 -10 0 -19 2 -19 4 0 3 15 41 34 85 61 146 166 259 166 180z m-1924
-4 c42 -17 37 -35 -10 -35 -17 0 -55 -12 -84 -26 -85 -42 -128 -106 -192 -284
-23 -63 -44 -124 -47 -135 -11 -36 -43 -74 -78 -91 -64 -30 -79 21 -17 60 42
27 57 42 64 71 3 11 9 29 13 40 5 11 -18 -6 -50 -38 -32 -32 -64 -56 -71 -53
-7 3 -16 26 -19 53 -4 26 -16 63 -26 81 -26 46 -25 65 4 56 31 -10 81 -6 111
10 26 13 86 75 86 89 0 4 8 15 18 25 9 10 40 45 69 78 31 36 68 67 90 76 21 9
49 20 63 26 34 14 35 14 76 -3z m228 -79 c31 -62 32 -101 1 -101 -13 0 -21 8
-23 21 -2 11 -20 40 -42 64 -44 48 -43 70 4 70 29 0 35 -5 60 -54z m-149 4
c31 -12 58 -41 82 -89 18 -36 10 -63 -21 -69 -12 -3 -16 4 -16 28 0 35 -33 69
-78 82 -48 14 -121 -43 -122 -94 0 -32 41 -68 70 -61 26 7 25 17 -5 46 -25 22
-25 24 -8 43 28 32 49 35 77 13 14 -11 26 -25 26 -31 0 -6 7 -19 15 -28 14
-16 14 -20 -2 -49 -23 -40 -71 -55 -127 -40 -51 14 -78 6 -127 -38 -49 -45
-75 -91 -60 -106 18 -18 13 -58 -15 -117 -30 -65 -76 -110 -114 -110 -34 0
-42 -8 -29 -31 12 -24 32 -24 72 -1 83 46 123 116 133 233 6 64 11 74 42 105
20 19 45 34 59 34 12 0 26 0 31 1 19 1 11 -32 -10 -40 -33 -13 -70 -56 -66
-78 4 -25 48 -31 48 -7 0 21 88 114 107 114 37 0 17 -38 -57 -106 -14 -13 -29
-28 -35 -35 -5 -6 -21 -23 -36 -37 -14 -15 -46 -63 -73 -107 -77 -129 -113
-162 -167 -150 -22 5 -29 3 -29 -8 0 -27 28 -40 73 -34 33 4 50 14 80 48 20
23 37 49 37 59 0 10 18 34 40 54 54 48 103 50 155 5 28 -25 33 -34 24 -45 -6
-8 -19 -14 -28 -14 -10 0 -27 -13 -39 -30 -23 -30 -30 -80 -12 -80 6 0 13 0
18 0 4 -1 9 14 12 32 4 24 12 35 32 42 23 8 32 6 53 -14 28 -26 28 -50 3 -147
-12 -47 -66 -116 -107 -137 -51 -26 -128 -39 -163 -27 -33 11 -158 123 -158
141 0 15 18 12 50 -7 26 -15 31 -15 68 0 47 19 92 58 92 80 0 30 -20 28 -55
-8 -32 -31 -41 -35 -89 -35 -53 0 -54 0 -90 53 -20 29 -36 60 -36 70 0 9 -6
26 -12 37 -10 16 -10 24 0 41 12 18 10 24 -12 46 -41 40 -29 70 24 65 34 -4
105 60 97 87 -3 11 1 28 9 38 7 10 14 25 14 34 0 33 92 246 125 291 31 42 65
65 135 91 25 9 67 8 95 -3z m887 -123 c54 -41 98 -112 105 -168 l5 -44 -53 58
-54 59 -45 -11 c-69 -16 -89 -13 -115 15 -30 33 -32 63 -4 98 17 22 28 26 69
26 39 0 57 -6 92 -33z m-459 9 c70 -18 125 -47 159 -83 34 -36 77 -127 85
-178 3 -22 10 -48 15 -57 5 -11 5 -26 -2 -39 -7 -11 -9 -27 -6 -35 5 -12 10
-12 33 5 16 11 51 22 78 26 46 6 53 4 75 -20 20 -21 22 -28 10 -35 -8 -5 -21
-5 -32 1 -42 23 -160 -18 -178 -62 -7 -15 -32 -58 -56 -94 -42 -65 -43 -68
-38 -133 3 -37 10 -82 16 -101 15 -49 72 -107 124 -127 24 -9 44 -21 44 -25 0
-5 -22 -9 -48 -9 -100 0 -171 90 -180 227 -5 73 -14 86 -36 50 -7 -11 -7 -34
2 -75 7 -32 12 -70 12 -84 0 -14 7 -31 15 -38 65 -54 -77 -97 -260 -80 -53 6
-100 12 -106 15 -20 13 -7 31 40 53 27 13 67 41 89 63 45 42 57 47 69 24 13
-23 115 -95 126 -88 7 4 -128 143 -140 143 -1 0 -31 -22 -66 -49 -175 -132
-251 -160 -186 -70 26 37 57 185 43 207 -22 34 -33 24 -31 -30 3 -70 -36 -168
-86 -218 -42 -42 -113 -66 -159 -53 -41 12 -35 27 14 36 96 19 188 130 188
226 0 22 7 46 15 55 20 20 19 22 -14 65 -32 41 -92 157 -84 164 2 3 8 49 14
103 5 54 13 102 19 108 5 5 10 17 10 26 0 10 8 27 19 39 10 12 29 36 41 54 25
36 113 83 180 96 68 13 114 12 173 -3z m1811 -88 c18 -52 3 -56 -177 -51 -153
4 -331 -6 -369 -22 -28 -11 -22 20 8 44 15 12 45 25 68 31 22 6 52 13 65 18
14 4 108 7 210 7 l186 0 9 -27z m-1524 -50 c23 -17 45 -22 95 -23 56 -2 70 -6
103 -32 51 -41 111 -131 112 -168 0 -17 9 -54 19 -83 20 -55 15 -102 -11 -102
-35 0 -79 26 -84 50 -3 14 -9 33 -15 42 -5 10 -9 25 -9 34 0 24 -68 121 -122
175 -36 36 -57 49 -78 49 -21 0 -33 8 -49 34 -12 18 -21 36 -21 40 0 13 32 5
60 -16z m58 -129 c44 -42 47 -59 9 -58 -12 0 -33 -3 -47 -6 -25 -6 -26 -5 -26
49 -1 35 3 56 10 56 6 0 30 -19 54 -41z m-827 -90 c-1 -30 -3 -54 -4 -55 -1
-1 -26 -4 -54 -7 -64 -7 -73 12 -19 44 19 11 39 33 46 50 19 46 34 30 31 -32z
m1168 -29 c20 -42 28 -50 52 -50 40 0 44 -14 14 -57 -14 -21 -25 -42 -25 -48
0 -6 -16 -26 -35 -45 -28 -27 -44 -34 -87 -38 -45 -3 -56 -1 -72 17 -25 28 -9
49 24 31 27 -14 73 -5 95 20 15 16 17 32 12 86 -2 36 -10 71 -16 77 -15 15
-14 57 2 57 7 0 23 -22 36 -50z m-239 -70 c25 -13 41 -65 34 -109 -5 -31 -1
-43 21 -69 22 -26 34 -32 66 -32 21 0 57 7 78 16 65 26 68 12 10 -48 -42 -44
-73 -65 -139 -94 -96 -42 -124 -44 -180 -13 -88 50 -95 179 -13 237 16 11 39
22 53 23 29 5 39 35 13 41 -50 12 -124 -50 -149 -125 -30 -89 1 -173 77 -216
56 -32 115 -28 193 13 40 21 68 30 72 24 9 -14 -20 -40 -90 -82 -74 -45 -119
-47 -196 -8 -103 52 -144 168 -100 284 24 64 99 154 133 161 43 8 98 7 117 -3z
m-1400 -122 c0 -13 14 -52 30 -86 35 -75 37 -88 10 -104 -11 -7 -20 -17 -20
-23 0 -5 -7 -23 -15 -38 -12 -24 -25 -81 -38 -169 -2 -15 0 -51 4 -80 11 -66
0 -74 -61 -43 -92 46 -147 146 -138 247 8 83 48 94 48 13 0 -85 43 -206 78
-220 25 -9 26 4 4 48 -24 48 -41 117 -42 163 0 18 -7 54 -16 81 -15 47 -15 51
5 89 28 52 112 143 134 143 11 1 17 -7 17 -21z"/>
<path d="M2825 4640 c-8 -12 20 -24 35 -15 5 3 10 10 10 16 0 12 -37 12 -45
-1z"/>
<path d="M2273 3945 c-114 -49 -197 -167 -151 -213 19 -19 28 -14 28 17 0 66
67 137 159 167 48 15 54 15 94 0 120 -47 164 -156 96 -239 -17 -21 -44 -44
-60 -53 -28 -14 -31 -13 -54 10 -30 30 -31 38 -5 61 22 20 18 35 -9 35 -10 0
-26 -15 -36 -34 -18 -33 -18 -34 1 -67 42 -71 95 -75 165 -12 53 48 69 81 69
145 0 55 -16 90 -60 137 -53 55 -166 77 -237 46z"/>
<path d="M3204 3055 c-10 -24 5 -35 48 -35 77 0 128 -64 128 -160 0 -79 -31
-126 -100 -150 -31 -11 -39 -10 -73 10 -21 12 -36 28 -34 34 2 6 28 14 58 18
43 5 59 13 81 37 52 58 30 88 -25 37 -23 -21 -51 -36 -77 -40 -23 -3 -43 -13
-46 -21 -3 -8 -21 -19 -40 -25 -34 -12 -74 -56 -74 -83 0 -8 10 -27 21 -41 20
-25 26 -27 70 -21 27 4 65 15 86 26 20 10 43 19 49 19 24 0 114 81 129 116 20
49 19 140 -4 189 -10 22 -34 55 -55 73 -31 27 -45 32 -87 32 -34 0 -51 -5 -55
-15z m-9 -366 c13 -14 -20 -39 -52 -39 -26 0 -39 21 -29 46 5 13 14 15 38 10
18 -3 37 -11 43 -17z"/>
<path d="M2116 4133 c-12 -13 -6 -53 9 -53 9 0 15 9 15 24 0 26 -12 40 -24 29z"/>
<path d="M2134 3456 c-16 -43 20 -91 53 -70 29 18 39 42 27 62 -14 22 -72 29
-80 8z"/>
<path d="M3503 3469 c-41 -15 -26 -89 17 -89 23 0 53 35 48 56 -5 26 -39 44
-65 33z"/>
<path d="M2145 2239 c-9 -28 9 -46 28 -30 8 6 17 21 20 31 7 29 -39 28 -48 -1z"/>
<path d="M2354 2017 c-60 -52 -44 -217 21 -217 36 0 40 19 11 49 -35 37 -36
98 -1 139 29 35 30 38 10 46 -8 3 -27 -5 -41 -17z"/>
<path d="M2459 1882 c-9 -20 -19 -45 -22 -54 -4 -10 -10 -18 -16 -18 -5 0 -11
-9 -14 -19 -8 -33 -78 -61 -152 -61 -36 0 -65 -4 -65 -10 0 -31 112 -41 174
-15 42 18 103 77 117 112 11 29 12 103 2 103 -5 0 -15 -17 -24 -38z"/>
<path d="M3257 2518 c-2 -7 0 -23 4 -36 13 -34 41 -24 45 16 3 28 1 32 -20 32
-13 0 -26 -6 -29 -12z"/>
<path d="M3360 2485 c7 -9 15 -13 17 -11 7 7 -7 26 -19 26 -6 0 -6 -6 2 -15z"/>
<path d="M2750 2480 c-75 -11 -140 -37 -140 -57 0 -17 9 -16 54 2 41 17 227
23 329 10 64 -8 76 5 28 29 -36 19 -186 28 -271 16z"/>
<path d="M2635 2236 c-27 -20 -12 -43 34 -51 46 -8 61 -2 61 25 0 36 -60 52
-95 26z"/>
<path d="M2972 2234 c-48 -33 -16 -70 43 -49 48 16 57 41 20 55 -34 13 -37 13
-63 -6z"/>
<path d="M3267 1914 c-16 -16 -5 -54 25 -83 39 -38 100 -44 118 -11 10 18 8
20 -22 20 -37 1 -74 27 -80 56 -3 19 -28 30 -41 18z"/>
<path d="M918 5147 c29 -29 52 -57 52 -63 0 -15 -34 -44 -51 -44 -8 0 -23 16
-33 35 -10 19 -27 41 -36 50 -15 14 -20 11 -59 -35 l-43 -50 73 -75 c40 -41
77 -75 82 -75 14 0 207 181 207 194 0 7 -24 35 -53 64 l-53 52 -69 0 -69 0 52
-53z"/>
<path d="M1122 5178 c29 -43 45 -46 80 -10 l33 32 -64 0 c-63 0 -63 0 -49 -22z"/>
<path d="M1260 5122 c-123 -129 -269 -263 -370 -338 -104 -78 -400 -350 -400
-368 0 -6 16 -28 36 -49 l35 -37 142 139 c78 76 183 172 232 214 50 41 178
160 285 264 107 105 211 204 230 221 l35 31 -75 1 -76 0 -74 -78z"/>
<path d="M3820 5083 c64 -65 133 -137 152 -161 l36 -43 36 31 c20 18 36 37 36
43 0 6 -55 64 -122 129 l-123 118 -66 0 -66 0 117 -117z"/>
<path d="M4036 5100 c55 -55 104 -100 110 -100 13 0 64 52 64 66 0 6 -29 39
-64 72 l-64 62 -72 0 -72 0 98 -100z"/>
<path d="M4316 5133 c150 -173 203 -227 255 -259 31 -19 60 -34 63 -34 25 0
286 275 286 302 0 32 -53 58 -117 58 l-58 -1 28 -24 c15 -13 27 -28 27 -33 0
-14 -163 -182 -177 -182 -7 0 -19 13 -27 29 -9 16 -56 70 -106 120 l-92 91
-70 0 -70 0 58 -67z"/>
<path d="M4565 5135 c34 -36 65 -65 70 -65 14 0 65 52 65 67 0 8 -12 25 -27
38 -24 21 -38 24 -98 25 l-70 0 60 -65z"/>
<path d="M5020 5143 c29 -32 57 -59 61 -61 26 -10 -6 -52 -146 -192 -85 -85
-155 -158 -155 -162 0 -19 -43 -4 -106 37 -67 44 -104 56 -104 34 0 -20 162
-190 250 -262 112 -92 266 -243 402 -394 97 -109 138 -143 138 -114 0 5 61 66
135 136 l135 128 105 -109 104 -109 1 71 0 71 -72 69 c-40 38 -93 86 -118 108
-25 21 -112 104 -194 184 l-148 146 -29 -35 c-16 -18 -29 -42 -29 -52 0 -9 61
-77 135 -150 74 -72 135 -139 135 -148 0 -17 -30 -49 -47 -49 -6 0 -18 12 -28
26 -9 15 -84 94 -166 176 -82 82 -149 154 -149 160 0 6 28 36 62 67 l61 57
-33 37 c-18 21 -38 37 -45 35 -15 -4 -205 -178 -205 -188 0 -4 95 -103 210
-219 116 -116 210 -216 210 -221 0 -13 -41 -50 -56 -50 -6 0 -23 17 -37 38
-30 43 -224 243 -350 360 -49 45 -87 86 -85 92 5 13 299 310 308 310 4 0 19
-15 33 -32 35 -46 89 -101 267 -273 270 -261 359 -345 365 -345 3 0 5 29 3 65
l-3 64 -374 376 -374 375 -59 0 -60 0 52 -57z"/>
<path d="M5510 4877 l325 -322 3 69 3 68 -258 254 -258 253 -70 0 -70 0 325
-322z"/>
<path d="M5592 5166 c57 -50 150 -86 223 -86 23 0 25 4 25 48 0 65 -17 72
-168 72 l-117 -1 37 -33z"/>
<path d="M5713 5019 c-7 -7 -13 -19 -13 -27 0 -22 60 -92 79 -92 27 0 61 43
61 77 0 28 -3 31 -37 36 -21 3 -47 8 -58 11 -11 4 -25 2 -32 -5z"/>
<path d="M1490 4818 c-47 -50 -88 -97 -93 -104 -11 -18 40 -74 68 -74 26 0 96
53 170 129 l50 52 -49 44 c-26 25 -51 45 -55 45 -3 -1 -44 -42 -91 -92z"/>
<path d="M0 4463 l0 -81 55 -50 c30 -28 55 -55 55 -60 0 -6 -25 -32 -55 -59
l-55 -48 59 -62 c33 -34 68 -79 79 -100 41 -82 35 -256 -12 -326 -12 -17 -45
-45 -73 -62 l-52 -30 -1 -63 c0 -59 1 -62 19 -52 11 5 29 10 40 10 20 0 119
75 153 115 49 58 77 194 66 315 -11 117 -22 142 -83 198 -30 28 -55 58 -55 66
0 9 11 23 25 32 25 16 25 16 93 -57 170 -186 276 -294 286 -294 15 0 76 50 76
62 0 9 -353 369 -512 523 l-108 103 0 -80z"/>
<path d="M5001 4205 c-17 -20 -31 -40 -31 -45 0 -5 40 -57 90 -117 49 -59 90
-115 90 -124 0 -9 -9 -24 -21 -34 -18 -17 -23 -18 -52 -5 -18 8 -61 14 -97 15
-174 3 -167 1 -195 45 -14 22 -29 40 -33 40 -4 0 -22 -18 -40 -40 l-33 -40 39
-48 c62 -74 120 -92 252 -81 53 5 89 4 95 -2 6 -6 10 -79 10 -177 l0 -167 53
-3 c37 -2 52 1 53 10 3 62 -3 373 -8 411 -10 80 18 64 172 -103 76 -82 143
-151 149 -153 6 -2 28 4 48 14 21 11 44 19 53 19 8 0 15 4 15 9 0 5 -76 85
-168 178 -174 174 -208 211 -327 351 -38 45 -73 82 -76 82 -4 0 -21 -16 -38
-35z"/>
<path d="M3716 4182 c-7 -11 4 -15 76 -27 97 -15 206 -108 265 -226 23 -47 70
-116 103 -155 58 -69 90 -132 90 -178 0 -12 -13 -57 -30 -99 -50 -130 -36
-202 59 -307 67 -75 90 -115 105 -184 6 -27 17 -51 25 -54 11 -4 13 6 8 50 -7
70 -36 127 -102 203 -93 107 -103 152 -61 278 49 148 42 185 -64 308 -36 41
-79 108 -103 156 -43 89 -75 124 -181 197 -46 32 -67 39 -120 43 -40 4 -66 2
-70 -5z"/>
<path d="M3916 4182 c5 -5 27 -14 50 -20 23 -7 62 -28 89 -48 39 -30 55 -53
91 -130 32 -70 60 -112 108 -163 35 -37 71 -82 80 -99 21 -41 20 -103 -4 -182
-25 -80 -26 -179 -3 -223 9 -18 33 -54 54 -82 44 -59 89 -150 89 -183 0 -15 5
-22 13 -19 31 11 -7 136 -62 206 -76 96 -97 181 -65 273 10 29 22 57 26 63 4
5 8 32 8 60 0 71 -36 140 -114 221 -51 54 -72 86 -97 146 -32 80 -82 138 -147
172 -32 16 -134 23 -116 8z"/>
<path d="M5551 4124 l-34 -34 101 -101 c56 -56 102 -107 102 -114 0 -16 -33
-45 -53 -45 -8 0 -17 7 -19 15 -5 23 -170 185 -188 185 -17 0 -70 -49 -70 -65
0 -15 263 -275 278 -275 7 0 38 27 69 60 31 33 59 60 64 60 4 0 15 -7 23 -16
15 -14 16 -9 16 58 l0 73 -113 118 c-62 64 -119 117 -127 116 -8 0 -30 -16
-49 -35z"/>
<path d="M0 3866 c0 -155 3 -196 12 -190 36 20 59 52 74 103 22 75 12 151 -27
213 -59 92 -59 92 -59 -126z"/>
<path d="M618 3504 c-1 -30 -2 -62 -2 -71 -1 -16 7 -18 54 -15 68 4 82 19 78
87 l-3 49 -62 2 -63 1 -2 -53z"/>
<path d="M0 3305 c0 -49 3 -85 6 -82 7 7 6 159 -2 166 -2 2 -4 -35 -4 -84z"/>
<path d="M5655 3348 c-7 -18 0 -92 9 -107 4 -6 43 -10 91 -9 l85 1 0 59 0 58
-44 0 c-24 0 -64 3 -89 6 -37 5 -48 3 -52 -8z"/>
<path d="M4990 2809 c-102 -5 -243 -10 -315 -11 l-130 -3 -3 -59 -3 -58 118 3
c65 1 130 -1 146 -5 19 -6 35 -3 52 8 50 33 62 23 68 -56 2 -40 1 -136 -4
-213 -7 -99 -6 -172 3 -248 10 -98 13 -108 34 -113 37 -9 61 4 68 37 l6 30
171 -2 c122 -2 173 1 178 9 10 17 13 654 2 670 -5 9 -24 12 -52 10 l-44 -3 -3
-281 c-2 -209 -6 -284 -15 -292 -6 -6 -66 -12 -132 -13 l-120 -4 -3 34 c-2 18
0 37 5 42 5 5 44 5 88 0 50 -6 84 -6 91 0 8 7 12 87 13 263 2 226 0 254 -14
260 -9 3 -17 5 -18 4 -1 0 -85 -5 -187 -9z m112 -262 c0 -86 -4 -161 -7 -167
-3 -5 -21 -10 -39 -10 l-32 0 4 168 c3 138 7 169 20 179 13 10 20 10 35 0 18
-12 20 -25 19 -170z"/>
<path d="M5466 2798 c-3 -7 -6 -267 -9 -577 -4 -505 -6 -565 -20 -576 -10 -7
-60 -13 -119 -14 -171 -4 -238 -8 -244 -14 -4 -3 -8 -153 -10 -333 -3 -240 -1
-336 8 -363 26 -76 135 -201 203 -231 48 -21 227 -40 423 -44 l142 -2 0 57 0
57 -152 1 c-192 1 -321 20 -382 56 -53 31 -113 95 -121 127 -10 48 -22 205
-18 243 2 22 7 108 11 190 l7 150 328 3 327 2 0 54 0 54 -139 -3 -139 -2 4
526 c3 289 1 553 -3 586 l-8 60 -43 3 c-28 2 -44 -1 -46 -10z"/>
<path d="M102 2793 l-102 -4 0 -54 0 -55 69 0 c46 0 70 -4 74 -12 2 -7 1 -66
-2 -131 -5 -87 -11 -121 -21 -128 -8 -5 -39 -9 -67 -9 l-53 0 0 -55 0 -54 173
-3 c97 -2 196 2 227 8 52 10 55 12 53 40 -5 80 -4 327 2 332 9 9 51 10 434 11
227 1 339 5 348 12 17 14 17 83 0 97 -12 10 -892 10 -903 0 -2 -3 -5 -103 -6
-224 l-3 -219 -35 0 -35 0 0 225 0 225 -25 1 c-14 0 -71 -1 -128 -3z"/>
<path d="M5790 2736 c-63 -46 -95 -86 -121 -153 -21 -56 -22 -75 -27 -465 -5
-453 -9 -425 63 -410 l40 8 1 239 c2 400 12 571 34 616 11 21 29 44 40 52 18
13 21 23 18 80 l-3 66 -45 -33z"/>
<path d="M0 2544 c0 -65 0 -65 26 -62 22 2 29 11 40 47 16 56 5 81 -36 81
l-30 0 0 -66z"/>
<path d="M713 2413 c-25 -9 -15 -63 17 -93 25 -23 40 -28 113 -34 46 -4 90 -4
99 -1 17 7 32 103 18 120 -9 11 -224 18 -247 8z"/>
<path d="M5826 2394 c-11 -28 -7 -682 4 -689 7 -4 10 115 10 349 0 196 -2 356
-4 356 -2 0 -7 -7 -10 -16z"/>
<path d="M420 2230 c-14 -5 -114 -8 -222 -9 l-198 -1 0 -60 0 -59 83 -3 82 -3
3 -102 c1 -57 6 -103 10 -104 51 -7 82 -6 91 5 6 7 12 64 13 127 l3 114 30 0
30 0 3 -156 c2 -120 0 -158 -10 -161 -7 -2 -65 -2 -128 1 l-115 6 4 103 3 102
-51 0 -51 0 0 -155 0 -155 229 0 c205 0 230 2 233 16 2 9 0 76 -3 148 -3 72
-3 176 1 231 8 110 2 127 -40 115z"/>
<path d="M4203 2030 c-94 -57 -124 -233 -69 -399 31 -95 55 -137 118 -209 24
-27 83 -97 131 -155 52 -63 95 -107 105 -106 9 0 32 18 50 40 l34 39 -56 51
c-31 28 -91 92 -134 143 -153 179 -182 236 -182 355 0 71 23 147 63 205 20 28
20 29 2 42 -24 18 -24 18 -62 -6z"/>
<path d="M5285 2038 c-3 -7 -6 -58 -7 -113 l-3 -100 -40 -6 c-22 -4 -139 -8
-261 -10 -121 -1 -250 -7 -287 -12 -81 -12 -131 0 -182 45 -29 25 -38 28 -50
18 -39 -32 6 -140 68 -164 18 -6 57 -11 87 -10 30 2 163 5 295 9 316 8 459 15
466 23 4 4 9 80 13 170 l7 162 -51 0 c-31 0 -52 -5 -55 -12z"/>
<path d="M4360 2018 c-38 -39 -82 -148 -88 -214 -6 -84 28 -160 109 -240 l60
-59 167 -5 c98 -3 175 -10 187 -17 92 -53 125 -190 70 -292 -19 -33 -129 -153
-324 -353 -163 -167 -307 -320 -320 -341 l-24 -39 21 -21 c12 -11 45 -27 74
-34 96 -25 183 -87 349 -251 l156 -153 77 3 76 3 -208 211 c-177 178 -221 217
-285 252 -43 24 -77 49 -77 56 0 7 24 35 53 61 196 176 481 478 525 557 27 48
40 208 22 271 -14 51 -69 127 -123 171 l-39 31 -153 1 c-152 0 -154 1 -201 30
-68 42 -87 73 -92 148 -4 64 8 103 56 178 33 52 -25 91 -68 46z"/>
<path d="M804 2016 c-2 -6 -3 -76 -2 -155 3 -165 6 -170 75 -152 22 6 43 17
45 24 2 6 2 75 -1 151 l-6 139 -53 3 c-35 2 -55 -2 -58 -10z"/>
<path d="M1366 1823 c4 -27 9 -106 9 -178 2 -200 -28 -267 -143 -318 -55 -25
-67 -26 -322 -31 -146 -3 -410 -7 -587 -8 l-323 -1 0 -53 0 -53 58 -3 c31 -2
74 1 95 6 50 11 66 -3 64 -59 -3 -77 42 -108 195 -130 57 -8 126 -22 155 -30
45 -14 53 -21 63 -50 6 -19 16 -37 21 -41 14 -9 52 19 140 103 108 103 104
131 -17 141 l-66 5 7 -41 c5 -34 3 -42 -14 -51 -25 -14 -51 9 -51 45 0 14 -6
27 -14 30 -7 3 -78 6 -157 7 l-144 2 -3 24 c-2 14 3 30 11 36 11 8 122 10 384
8 313 -3 379 -1 443 13 121 26 197 74 254 161 34 51 45 127 46 306 0 117 -2
132 -22 160 -28 40 -37 47 -67 47 -23 0 -23 -2 -15 -47z"/>
<path d="M3857 1662 c-31 -35 -81 -158 -85 -209 -6 -70 1 -91 44 -141 38 -45
181 -148 191 -138 14 14 -17 49 -82 93 -127 87 -146 176 -69 324 25 49 34 78
25 83 -5 3 -15 -2 -24 -12z"/>
<path d="M1253 1540 c-58 -52 -132 -71 -267 -70 -67 0 -314 -1 -551 -4 l-430
-5 -3 -57 -3 -56 33 5 c18 4 227 7 465 9 540 3 673 9 710 33 39 26 58 45 82
85 41 69 18 108 -36 60z"/>
<path d="M2575 1530 c-3 -6 1 -33 10 -61 17 -50 16 -77 -4 -157 -14 -54 -9
-76 52 -195 55 -110 71 -195 44 -232 l-16 -20 -6 20 c-22 65 -34 86 -86 140
-71 75 -88 109 -99 193 -17 137 -46 206 -120 277 -33 32 -43 37 -50 25 -5 -7
-5 -21 -1 -29 5 -9 5 -25 0 -36 -4 -11 -8 -40 -9 -65 0 -25 -4 -61 -9 -81 -5
-21 -5 -43 0 -50 16 -27 30 8 36 95 3 48 10 89 14 92 12 7 58 -68 75 -123 8
-26 19 -79 24 -116 13 -86 39 -137 105 -207 82 -87 110 -154 84 -201 -5 -11
-9 -27 -7 -36 5 -25 58 25 91 86 40 72 40 153 -1 241 -17 36 -41 78 -54 95
-22 28 -23 37 -20 157 1 77 -2 129 -8 133 -5 3 -10 14 -10 24 0 24 -26 46 -35
31z"/>
<path d="M2708 1483 c-3 -10 -4 -47 -3 -83 3 -69 24 -124 58 -150 66 -49 102
-69 138 -75 31 -5 56 -22 105 -68 36 -33 70 -70 76 -81 25 -46 -2 -159 -47
-199 -11 -9 -61 -47 -112 -83 -99 -72 -154 -138 -172 -209 -5 -22 -15 -60 -21
-84 -7 -25 -10 -91 -9 -152 3 -79 0 -112 -9 -121 -10 -10 -72 -13 -255 -13
-510 -1 -555 -3 -567 -25 -8 -16 -5 -32 16 -76 14 -30 32 -58 40 -61 20 -7 41
13 47 46 12 58 67 46 67 -15 l0 -34 65 0 c62 0 65 1 65 24 0 37 24 51 60 36
16 -7 36 -10 44 -7 8 3 122 7 253 8 131 1 249 5 263 9 l25 6 5 230 6 229 29
53 c39 71 61 68 57 -8 -2 -30 -5 -173 -7 -317 l-3 -263 53 0 c46 0 53 3 59 23
10 38 7 425 -4 432 -15 9 -12 55 5 61 7 3 31 -7 51 -22 l37 -29 -6 -232 -6
-233 58 0 58 0 6 48 c4 26 7 160 8 297 l1 250 -73 6 c-41 3 -90 13 -110 22
-44 20 -99 64 -99 80 0 7 34 39 75 72 41 33 75 63 75 68 0 4 19 17 43 27 61
27 175 128 238 210 47 61 67 107 79 185 11 69 7 103 -19 148 -22 38 -30 34
-20 -10 32 -141 -34 -283 -201 -431 -45 -40 -85 -72 -89 -72 -5 0 -9 25 -9 55
-1 93 -60 171 -167 221 -27 13 -57 24 -65 24 -8 0 -40 17 -70 38 -69 47 -99
103 -103 189 -2 63 -11 88 -19 56z"/>
<path d="M5415 1450 c-5 -8 14 -362 21 -397 8 -41 94 -70 111 -38 5 8 3 83 -3
167 -7 84 -10 155 -8 157 2 3 53 6 112 7 59 1 126 2 150 3 l42 1 0 49 0 49
-62 6 c-90 7 -358 4 -363 -4z"/>
<path d="M1719 1274 c-13 -14 -36 -32 -51 -40 -37 -19 -35 -34 3 -34 39 0 147
-27 219 -54 180 -68 393 -253 530 -462 64 -98 78 -127 109 -225 14 -44 14
-106 1 -114 -17 -10 -628 -6 -719 4 -71 9 -88 8 -101 -4 -40 -36 -56 -1 -47
102 8 77 41 144 79 157 22 8 34 4 77 -28 27 -20 72 -66 98 -102 26 -36 58 -67
70 -70 42 -11 135 59 189 141 16 24 15 27 -12 68 -43 63 -130 156 -189 201
-65 50 -100 71 -185 110 -60 28 -74 31 -175 31 -97 0 -115 -3 -155 -24 -54
-28 -140 -92 -140 -103 0 -14 64 -67 81 -68 9 0 29 16 43 35 38 49 74 65 148
65 63 0 176 -33 258 -75 58 -30 139 -104 180 -167 43 -64 48 -84 26 -113 -19
-26 -40 -14 -66 40 -32 65 -114 151 -167 175 -57 25 -67 25 -120 -1 -51 -25
-106 -93 -131 -161 -19 -53 -40 -62 -64 -25 -9 12 -74 81 -147 153 -72 72
-131 137 -131 143 0 24 115 127 173 155 110 54 282 58 412 9 136 -51 380 -261
430 -372 14 -31 39 -73 56 -93 21 -27 28 -44 24 -61 -5 -19 1 -30 25 -51 17
-14 35 -26 38 -26 18 0 72 42 72 55 0 27 -76 167 -135 250 -163 229 -389 386
-614 429 -94 18 -207 21 -216 6 -3 -5 -17 -10 -29 -10 -13 0 -60 -18 -104 -40
-67 -34 -96 -57 -165 -130 -78 -84 -107 -105 -107 -79 0 18 -142 159 -160 159
-18 0 -50 -30 -50 -47 0 -6 8 -25 17 -41 l17 -30 -47 -51 c-26 -27 -47 -53
-47 -57 0 -16 45 -94 54 -94 6 0 36 25 67 56 44 43 61 55 77 50 45 -15 34 -36
-100 -182 -72 -79 -139 -144 -149 -144 -9 0 -34 24 -56 53 -85 112 -275 287
-312 287 -14 0 -185 91 -219 117 -47 36 -66 70 -67 122 l0 46 -45 0 c-70 0
-70 0 -70 -77 l0 -70 58 -57 c32 -31 80 -67 107 -81 113 -58 214 -116 265
-153 63 -45 260 -237 260 -252 -1 -5 -34 -46 -75 -90 l-74 -80 -63 61 c-127
124 -293 230 -378 241 -22 3 -43 10 -46 14 -3 5 -16 9 -30 9 -22 0 -24 -3 -24
-54 l0 -55 47 -13 c30 -9 49 -20 51 -31 2 -9 -19 -45 -47 -79 -51 -63 -51 -63
-51 -136 l0 -73 30 23 c41 30 110 120 149 193 18 33 36 60 41 60 6 0 79 -69
164 -153 85 -83 159 -152 164 -152 5 0 13 9 18 19 14 29 245 271 259 271 10 0
220 -215 272 -279 l19 -24 32 31 c18 17 32 39 32 47 0 9 -59 73 -130 142 -72
69 -130 133 -130 143 0 17 29 50 45 50 4 0 26 -21 49 -47 22 -27 106 -115 186
-197 80 -82 170 -175 201 -208 l56 -58 73 0 74 0 -35 37 c-67 74 -435 440
-491 490 -64 57 -71 78 -33 95 24 11 34 2 223 -183 108 -107 251 -249 317
-316 l120 -123 79 0 78 0 -29 34 c-15 19 -39 39 -53 44 -14 5 -151 133 -305
283 -154 151 -300 291 -324 311 -41 35 -43 40 -33 63 6 14 20 25 30 25 10 0
126 -106 267 -246 138 -135 266 -254 286 -264 34 -18 64 -19 479 -15 280 2
446 7 452 13 7 7 9 54 6 124 -4 98 -9 123 -35 185 -33 78 -124 230 -182 303
-57 73 -182 199 -241 244 -66 50 -214 136 -234 136 -8 0 -50 14 -93 30 -95 37
-103 37 -134 4z"/>
<path d="M5820 1270 c-6 -12 -8 -29 -5 -39 3 -10 6 -64 7 -119 0 -55 5 -106 9
-114 5 -7 9 53 9 140 0 83 -2 152 -5 152 -2 0 -9 -9 -15 -20z"/>
<path d="M5620 1270 c-9 -5 -11 -19 -6 -44 4 -20 9 -90 11 -156 4 -106 3 -120
-13 -128 -20 -9 -78 -8 -144 3 -90 14 -132 100 -113 232 8 64 -6 78 -67 66
l-43 -9 -5 -64 c-8 -92 15 -209 50 -252 45 -59 166 -85 398 -87 l152 -1 0 64
0 64 -32 -15 c-57 -29 -61 -17 -64 163 -2 87 -3 162 -3 166 -1 10 -105 8 -121
-2z"/>
<path d="M2810 1135 c0 -2 18 -32 40 -66 34 -53 40 -70 40 -116 0 -46 -4 -58
-35 -91 -19 -21 -77 -68 -129 -103 -53 -35 -95 -70 -96 -78 0 -20 29 -9 117
41 94 53 155 106 177 153 34 71 -5 200 -76 250 -22 15 -38 19 -38 10z"/>
<path d="M0 716 c0 -34 4 -56 11 -56 6 0 25 -6 42 -14 45 -19 110 -36 140 -36
14 0 28 -4 32 -9 7 -13 125 -91 136 -91 4 0 47 -34 94 -75 48 -41 89 -75 93
-75 4 0 20 12 35 26 l29 26 -79 79 c-132 134 -331 253 -438 262 -33 3 -68 8
-77 12 -16 6 -18 0 -18 -49z"/>
<path d="M4997 699 c-31 -33 -57 -65 -57 -69 0 -15 91 -115 104 -115 18 0 136
112 136 128 -1 7 -18 26 -40 42 -21 17 -43 40 -49 53 -6 12 -16 22 -23 22 -7
0 -39 -27 -71 -61z"/>
<path d="M4676 711 l-38 -39 317 -316 c174 -174 321 -316 326 -316 4 0 22 17
38 38 17 20 136 138 266 261 224 214 263 261 216 261 -76 0 -197 -85 -379
-268 -96 -95 -160 -152 -170 -150 -9 2 -21 16 -27 32 -10 28 -6 33 148 181 86
84 157 159 157 167 0 9 -12 18 -27 21 -16 3 -39 8 -53 12 -22 5 -43 -12 -169
-135 -79 -77 -145 -140 -147 -140 -10 0 -275 277 -332 347 -37 45 -72 83 -77
83 -6 0 -28 -18 -49 -39z"/>
<path d="M4019 703 c-54 -49 -91 -104 -125 -188 -24 -58 -28 -82 -26 -140 5
-143 55 -231 167 -295 56 -32 65 -46 43 -68 -9 -9 5 -12 64 -12 60 0 85 5 112
21 l35 20 13 -20 c10 -16 23 -21 55 -21 26 0 43 5 43 12 0 6 -20 30 -44 52
-46 43 -118 72 -169 67 -54 -5 -171 89 -202 162 -24 58 -12 170 24 217 14 19
31 44 36 55 6 11 20 21 32 23 34 5 38 -30 10 -80 -14 -24 -30 -66 -37 -95 -13
-56 -2 -92 44 -141 33 -37 133 -82 184 -82 45 0 169 -104 195 -162 11 -25 17
-28 64 -28 50 0 53 1 53 25 0 104 -180 273 -333 312 -54 14 -76 25 -99 52 -27
30 -29 38 -23 75 4 23 8 80 9 128 1 83 0 88 -28 117 -17 17 -36 31 -43 31 -7
0 -31 -17 -54 -37z"/>
<path d="M3771 558 c-62 -132 -92 -332 -75 -497 6 -56 9 -61 30 -61 23 0 24 3
24 68 0 128 29 397 50 462 22 73 24 90 10 90 -6 0 -23 -28 -39 -62z"/>
<path d="M4538 579 c-21 -21 -38 -42 -38 -47 0 -5 18 -22 40 -37 21 -15 46
-38 55 -51 8 -13 22 -24 29 -24 17 0 76 65 76 83 0 16 -102 118 -115 116 -6
-1 -27 -19 -47 -40z"/>
<path d="M5595 238 l-240 -238 71 0 71 0 172 171 172 171 -3 67 -3 66 -240
-237z"/>
<path d="M4727 415 l-28 -35 53 -63 c72 -86 191 -207 202 -207 11 0 76 69 76
80 0 4 -19 23 -42 43 -24 19 -83 76 -133 126 -49 50 -92 91 -95 91 -3 0 -18
-16 -33 -35z"/>
<path d="M690 153 l-142 -148 73 -3 73 -3 109 109 110 110 -33 41 c-18 23 -37
41 -41 41 -4 0 -71 -66 -149 -147z"/>
<path d="M160 188 c-17 -24 -60 -69 -96 -101 -83 -76 -83 -87 0 -87 l64 0 41
52 c23 28 44 61 47 73 8 34 0 98 -13 102 -7 3 -26 -15 -43 -39z"/>
<path d="M5726 116 l-108 -116 69 0 c68 0 69 0 111 45 l43 46 -3 71 -3 71
-109 -117z"/>
<path d="M881 79 l-75 -79 87 0 c82 0 88 1 122 31 19 17 35 36 35 43 0 15 -72
86 -85 85 -6 -1 -43 -37 -84 -80z"/>
<path d="M5041 94 c-31 -35 -32 -43 -3 -76 12 -14 31 -18 96 -18 l80 0 -64 65
c-35 36 -67 65 -71 65 -4 0 -21 -16 -38 -36z"/>
<path d="M225 10 c-4 -6 5 -10 20 -10 15 0 24 4 20 10 -8 13 -32 13 -40 0z"/>
</g>
</svg>
